{"title":"Top.Of.The.World.1997.iNTERNAL.DVDRip.XviD-EXViDiNT","uid":7011981,"size":736553261,"categoryP":"video","categoryS":"movies","magnet":"?xt=urn:btih:60c615114a9fa124cf6005f1256bb30d6f9093a5&amp;dn=Top.Of.The.World.1997.iNTERNAL.DVDRip.XviD-EXViDiNT&amp;tr=udp%3A%2F%2Ftracker.openbittorrent.com%3A80&amp;tr=udp%3A%2F%2Fopen.demonii.com%3A1337&amp;tr=udp%3A%2F%2Ftracker.coppersurfer.tk%3A6969&amp;tr=udp%3A%2F%2Fexodus.desync.com%3A6969","seeders":0,"leechers":3,"uploader":"TvTeam","files":4,"time":1328500939,"description":". \n &lt;a href=&quot;\nhttp://www.torrenting.com&quot; rel=&quot;nofollow&quot; target=&quot;_NEW&quot;&gt;\nhttp://www.torrenting.com&lt;/a&gt;          :     Once &amp; For all ;)\n\n\n               www . Torrenting . Com \n\n(((((((((((((= Enjoy No RAR releases =))))))))))))))))))))\n\n\n...................................NFO:....................................\n\n.                                                                                                     \n       \n     \n     \n       \n       \n     \n     \n                                         \n                                         \n                EXVID                    \n                                         \n         \n                                         \n         Filled the Archives             \n                                         \n         \n                                         \n                With:                    \n                                         \n         \n                                         \n                                    \n     E240                           \n                                    \n     SP               (C) 2009      \n                                         \n     \n     \n     \n                                                                                  \n                                                                                   \n                Top.Of.The.World.1997.iNTERNAL.DVDRip.XviD-EXViDiNT                 \n                                                                                   \n                                                                                  \n     \n                                                                                               \nEXViD aims to iNTERNAL those releases which have been lost in the archives.\nEXViD aims to PRE non-internal releases which have poor sources and are likely skipped by others. &lt;a href=&quot;\nhttp://www.imdb.com/title/tt0120353/&quot; rel=&quot;nofollow&quot; target=&quot;_NEW&quot;&gt;\nhttp://www.imdb.com/title/tt0120353/&lt;/a&gt;\nSubtitles: NL\nDate: 2012.01\n\nDirector: Sidney J. Furie\n\nGenres: Action | Thriller\n\nPlot:\nIn Las Vegas for a quicky divorce, a just-paroled ex-cop and his wife wander into the Top of the\nWorld Casino, run by the shady Charles Atlas. They win big, right as the casino is being robbed.\nThe police believe their big win was a staged diversion, and the two of them become suspects.\nOver the course of the evening and next morning, the two attempt to escape to surrounded casino,\nand to prove their innocence, as well as to save their marriage.\n\nCast:\nPeter Weller\t...\tRay Mercer\nDennis Hopper\t...\tCharles Atlas\nTia Carrere\t...\tRebecca Mercer\nDavid Alan Grier...\tDetective Augustus\nJoe Pantoliano\t...\tVince Castor\nCary-Hiroyuki Tagawa\t...\tCaptain Hefter\nPeter Coyote\t...\tDoc 'The Butcher'\nJulie McCullough...\tGinger\nMartin Kove\t...\tCarl\nKevin Bernhardt\t...\tDean\nEddie Mekka\t...\tJoe Burns\nDerek Anunciation\t...\tFredo\nDell Yount\t...\tMac\nAlexander Mervin...\tBenny\nMichael Delano\t...\tLieutenant De Rosa\n\nStats:\nFormat                                   : AVI\nFormat/Info                              : Audio Video Interleave\nFile size                                : 702 MiB\nDuration                                 : 1h 34mn\nOverall bit rate mode                    : Variable\nOverall bit rate                         : 1 039 Kbps\n\nVideo\nID                                       : 0\nFormat                                   : MPEG-4 Visual\nFormat profile                           : Advanced Simple@L5\nFormat settings, BVOP                    : 2\nFormat settings, QPel                    : No\nFormat settings, GMC                     : No warppoints\nFormat settings, Matrix                  : Default (H.263)\nCodec ID                                 : XVID\nCodec ID/Hint                            : XviD\nDuration                                 : 1h 34mn\nBit rate                                 : 899 Kbps\nWidth                                    : 640 pixels\nHeight                                   : 480 pixels\nDisplay aspect ratio                     : 4:3\nFrame rate                               : 25.000 fps\nColor space                              : YUV\nChroma subsampling                       : 4:2:0\nBit depth                                : 8 bits\nScan type                                : Progressive\nCompression mode                         : Lossy\nBits/(Pixel*Frame)                       : 0.117\nStream size                              : 608 MiB (87%)\nWriting library                          : XviD 64\n\nAudio\nID                                       : 1\nFormat                                   : MPEG Audio\nFormat version                           : Version 1\nFormat profile                           : Layer 3\nMode                                     : Joint stereo\nCodec ID                                 : 55\nCodec ID/Hint                            : MP3\nDuration                                 : 1h 34mn\nBit rate mode                            : Variable\nBit rate                                 : 128 Kbps\nChannel(s)                               : 2 channels\nSampling rate                            : 48.0 KHz\nCompression mode                         : Lossy\nStream size                              : 85.8 MiB (12%)\nAlignment                                : Aligned on interleaves\nInterleave, duration                     : 24 ms (0.60 video frame)\nInterleave, preload duration             : 408 ms\n\n\n\nRelease notes:\nEnjoy!\n\nLooking for:\n75TB+ Archives\nDUTCH/FLEMiSH Archives\n                                                                                                    \nGreets: CRBS EPiSODE FiCO FLS iLS KLASSiGER LiPSYNC MADE NODLABS RUNNER SPRiNTER      \n   \n\n                                                                    ASCII DONE BY XX^NFO 2oo9     \n \n\nRLS-Crc: 415243414445:42EECD90","torrent":{"xt":"urn:btih:60c615114a9fa124cf6005f1256bb30d6f9093a5","amp;dn":"Top.Of.The.World.1997.iNTERNAL.DVDRip.XviD-EXViDiNT","amp;tr":["udp%3A%2F%2Ftracker.openbittorrent.com%3A80","udp%3A%2F%2Fopen.demonii.com%3A1337","udp%3A%2F%2Ftracker.coppersurfer.tk%3A6969","udp%3A%2F%2Fexodus.desync.com%3A6969"],"infoHash":"60c615114a9fa124cf6005f1256bb30d6f9093a5","infoHashBuffer":{"type":"Buffer","data":[96,198,21,17,74,159,161,36,207,96,5,241,37,107,179,13,111,144,147,165]},"announce":[],"urlList":[]}}